<svg width="234" height="234" viewBox="0 0 234 234" fill="none" xmlns="http://www.w3.org/2000/svg">
<g clip-path="url(#clip0_1_2)">
<rect width="234" height="234" />
<rect width="234" height="234" rx="24" fill="#0B0B0B"/>
<circle cx="117.5" cy="117.5" r="107.5" fill="white"/>
<path d="M112.967 20.2727V37H110.435V22.8047H110.337L106.335 25.4183V23.0007L110.509 20.2727H112.967ZM117.492 37V35.1705L123.152 29.3061C123.756 28.669 124.255 28.1109 124.647 27.6317C125.044 27.1471 125.341 26.687 125.537 26.2514C125.733 25.8158 125.831 25.353 125.831 24.8629C125.831 24.3075 125.7 23.8284 125.439 23.4254C125.178 23.017 124.821 22.704 124.369 22.4862C123.917 22.2629 123.408 22.1513 122.842 22.1513C122.243 22.1513 121.72 22.2738 121.273 22.5188C120.827 22.7638 120.484 23.1096 120.244 23.5561C120.005 24.0026 119.885 24.5253 119.885 25.1243H117.475C117.475 24.1061 117.71 23.2158 118.178 22.4535C118.646 21.6912 119.289 21.1004 120.105 20.6811C120.922 20.2564 121.851 20.044 122.891 20.044C123.942 20.044 124.867 20.2537 125.668 20.6729C126.473 21.0868 127.102 21.6531 127.554 22.3718C128.006 23.0851 128.232 23.891 128.232 24.7894C128.232 25.4102 128.115 26.0173 127.881 26.6108C127.652 27.2043 127.252 27.8659 126.68 28.5955C126.109 29.3197 125.314 30.1991 124.295 31.2337L120.971 34.7131V34.8356H128.502V37H117.492Z" fill="black"/>
<path d="M26.3601 110.044C27.1061 110.049 27.8412 110.186 28.5654 110.452C29.2896 110.719 29.943 111.155 30.5256 111.759C31.1137 112.364 31.582 113.18 31.9304 114.21C32.2844 115.233 32.4641 116.507 32.4695 118.032C32.4695 119.497 32.3225 120.801 32.0285 121.944C31.7344 123.082 31.3124 124.043 30.7625 124.827C30.218 125.612 29.5564 126.208 28.7777 126.616C27.9991 127.025 27.1224 127.229 26.1478 127.229C25.1513 127.229 24.2665 127.033 23.4933 126.641C22.7201 126.249 22.0912 125.707 21.6066 125.015C21.122 124.318 20.8198 123.518 20.7 122.614H23.1911C23.3544 123.333 23.6866 123.915 24.1875 124.362C24.6939 124.803 25.3473 125.023 26.1478 125.023C27.3729 125.023 28.3285 124.49 29.0146 123.423C29.7007 122.35 30.0464 120.853 30.0519 118.93H29.9212C29.6381 119.399 29.2841 119.802 28.8594 120.139C28.4401 120.477 27.9691 120.738 27.4464 120.923C26.9237 121.108 26.3656 121.201 25.7721 121.201C24.8083 121.201 23.9316 120.964 23.1421 120.49C22.3526 120.017 21.7236 119.366 21.2554 118.538C20.7871 117.711 20.553 116.766 20.553 115.704C20.553 114.648 20.7925 113.69 21.2717 112.829C21.7563 111.969 22.4315 111.288 23.2973 110.787C24.1685 110.281 25.1894 110.033 26.3601 110.044ZM26.3683 112.168C25.7312 112.168 25.1568 112.326 24.6449 112.641C24.1385 112.952 23.7383 113.374 23.4443 113.907C23.1503 114.435 23.0032 115.024 23.0032 115.672C23.0032 116.319 23.1448 116.908 23.428 117.436C23.7165 117.958 24.1086 118.375 24.6041 118.685C25.105 118.99 25.6768 119.143 26.3193 119.143C26.7985 119.143 27.245 119.05 27.6588 118.865C28.0726 118.68 28.4347 118.424 28.7451 118.097C29.0554 117.765 29.2977 117.389 29.472 116.97C29.6462 116.551 29.7334 116.11 29.7334 115.647C29.7334 115.032 29.5863 114.46 29.2923 113.932C29.0037 113.404 28.6062 112.979 28.0998 112.658C27.5934 112.331 27.0163 112.168 26.3683 112.168Z" fill="black"/>
<path d="M39.0964 64.2727V81H36.5644V66.8047H36.4664L32.4643 69.4183V67.0007L36.6379 64.2727H39.0964ZM49.4447 81.2777C48.1543 81.2723 47.0516 80.9319 46.1369 80.2567C45.2221 79.5816 44.5224 78.5987 44.0378 77.3082C43.5532 76.0178 43.3109 74.4632 43.3109 72.6445C43.3109 70.8313 43.5532 69.2822 44.0378 67.9972C44.5278 66.7121 45.2302 65.732 46.145 65.0568C47.0652 64.3816 48.1651 64.044 49.4447 64.044C50.7243 64.044 51.8215 64.3844 52.7363 65.065C53.6511 65.7402 54.3507 66.7203 54.8354 68.0053C55.3254 69.2849 55.5704 70.8313 55.5704 72.6445C55.5704 74.4686 55.3281 76.0259 54.8435 77.3164C54.3589 78.6014 53.6592 79.5843 52.7445 80.2649C51.8297 80.9401 50.7298 81.2777 49.4447 81.2777ZM49.4447 79.0969C50.5773 79.0969 51.4621 78.5443 52.0992 77.4389C52.7417 76.3336 53.063 74.7354 53.063 72.6445C53.063 71.256 52.916 70.0826 52.6219 69.1243C52.3333 68.1605 51.9168 67.4309 51.3723 66.9354C50.8332 66.4344 50.1907 66.1839 49.4447 66.1839C48.3176 66.1839 47.4328 66.7393 46.7903 67.8501C46.1477 68.9609 45.8238 70.5591 45.8183 72.6445C45.8183 74.0385 45.9626 75.2173 46.2512 76.1811C46.5452 77.1394 46.9618 77.8664 47.5008 78.3619C48.0399 78.8519 48.6879 79.0969 49.4447 79.0969Z" fill="black"/>
<path d="M73.0842 34.2727V51H70.5522V36.8047H70.4542L66.4521 39.4183V37.0007L70.6257 34.2727H73.0842ZM83.9553 34.2727V51H81.4233V36.8047H81.3253L77.3232 39.4183V37.0007L81.4968 34.2727H83.9553Z" fill="black"/>
<path d="M210.52 127.229C209.399 127.229 208.397 127.035 207.515 126.649C206.638 126.262 205.944 125.726 205.432 125.04C204.926 124.348 204.653 123.548 204.615 122.638H207.18C207.213 123.134 207.379 123.564 207.678 123.929C207.983 124.288 208.381 124.566 208.871 124.762C209.361 124.958 209.905 125.056 210.504 125.056C211.163 125.056 211.746 124.942 212.252 124.713C212.764 124.484 213.164 124.166 213.453 123.757C213.741 123.344 213.885 122.867 213.885 122.328C213.885 121.767 213.741 121.275 213.453 120.85C213.169 120.42 212.753 120.082 212.203 119.837C211.658 119.592 211 119.469 210.226 119.469H208.813V117.411H210.226C210.847 117.411 211.392 117.3 211.86 117.076C212.334 116.853 212.704 116.543 212.971 116.145C213.238 115.742 213.371 115.271 213.371 114.732C213.371 114.215 213.254 113.766 213.02 113.385C212.791 112.998 212.464 112.696 212.04 112.478C211.62 112.26 211.125 112.151 210.553 112.151C210.009 112.151 209.499 112.252 209.026 112.453C208.557 112.65 208.176 112.933 207.882 113.303C207.588 113.668 207.43 114.106 207.409 114.618H204.966C204.994 113.714 205.26 112.919 205.767 112.233C206.279 111.547 206.954 111.011 207.792 110.624C208.631 110.237 209.562 110.044 210.586 110.044C211.658 110.044 212.584 110.254 213.363 110.673C214.147 111.087 214.751 111.639 215.176 112.331C215.606 113.022 215.818 113.779 215.813 114.602C215.818 115.538 215.557 116.333 215.029 116.987C214.506 117.64 213.809 118.078 212.938 118.301V118.432C214.049 118.601 214.909 119.042 215.519 119.755C216.134 120.469 216.439 121.353 216.434 122.41C216.439 123.33 216.183 124.155 215.666 124.885C215.154 125.614 214.454 126.189 213.567 126.608C212.679 127.022 211.664 127.229 210.52 127.229Z" fill="black"/>
<path d="M166.02 34.2727V51H163.488V36.8047H163.39L159.388 39.4183V37.0007L163.561 34.2727H166.02Z" fill="black"/>
<path d="M191.056 81V79.1705L196.716 73.3061C197.321 72.669 197.819 72.1109 198.211 71.6317C198.609 71.1471 198.905 70.687 199.101 70.2514C199.297 69.8158 199.395 69.353 199.395 68.8629C199.395 68.3075 199.265 67.8284 199.003 67.4254C198.742 67.017 198.385 66.704 197.933 66.4862C197.481 66.2629 196.972 66.1513 196.406 66.1513C195.807 66.1513 195.284 66.2738 194.838 66.5188C194.391 66.7638 194.048 67.1096 193.809 67.5561C193.569 68.0026 193.449 68.5253 193.449 69.1243H191.04C191.04 68.1061 191.274 67.2158 191.742 66.4535C192.211 65.6912 192.853 65.1004 193.67 64.6811C194.487 64.2564 195.415 64.044 196.455 64.044C197.506 64.044 198.432 64.2537 199.232 64.6729C200.038 65.0868 200.667 65.6531 201.119 66.3718C201.571 67.0851 201.797 67.891 201.797 68.7894C201.797 69.4102 201.68 70.0173 201.445 70.6108C201.217 71.2043 200.817 71.8659 200.245 72.5955C199.673 73.3197 198.878 74.1991 197.86 75.2337L194.536 78.7131V78.8356H202.066V81H191.056Z" fill="black"/>
<path d="M190.733 167.733V165.691L197.962 154.273H199.571V157.278H198.55L193.38 165.462V165.593H203.287V167.733H190.733ZM198.664 171V167.112L198.68 166.181V154.273H201.074V171H198.664Z" fill="black"/>
<path d="M164.499 202.229C163.475 202.229 162.555 202.033 161.738 201.641C160.927 201.243 160.279 200.699 159.794 200.007C159.31 199.316 159.051 198.526 159.019 197.638H161.469C161.529 198.357 161.847 198.948 162.424 199.411C163.002 199.874 163.693 200.105 164.499 200.105C165.141 200.105 165.711 199.958 166.206 199.664C166.707 199.365 167.099 198.953 167.382 198.431C167.671 197.908 167.815 197.312 167.815 196.642C167.815 195.961 167.668 195.354 167.374 194.821C167.08 194.287 166.674 193.868 166.157 193.563C165.645 193.258 165.057 193.103 164.393 193.097C163.886 193.097 163.377 193.184 162.865 193.359C162.354 193.533 161.94 193.762 161.624 194.045L159.313 193.702L160.252 185.273H169.449V187.437H162.351L161.82 192.117H161.918C162.245 191.801 162.678 191.537 163.217 191.325C163.761 191.113 164.344 191.006 164.965 191.006C165.983 191.006 166.889 191.249 167.684 191.733C168.485 192.218 169.114 192.879 169.571 193.718C170.034 194.551 170.263 195.509 170.257 196.593C170.263 197.677 170.018 198.643 169.522 199.493C169.032 200.342 168.351 201.012 167.48 201.502C166.614 201.986 165.621 202.229 164.499 202.229Z" fill="black"/>
<path d="M117.638 215.229C116.892 215.218 116.157 215.082 115.433 214.82C114.714 214.559 114.06 214.123 113.472 213.513C112.884 212.904 112.413 212.084 112.059 211.055C111.711 210.026 111.537 208.741 111.537 207.2C111.537 205.741 111.681 204.445 111.97 203.312C112.264 202.18 112.686 201.224 113.235 200.445C113.785 199.661 114.45 199.065 115.228 198.657C116.007 198.248 116.881 198.044 117.85 198.044C118.847 198.044 119.731 198.24 120.505 198.632C121.278 199.024 121.904 199.566 122.383 200.257C122.868 200.949 123.175 201.736 123.306 202.618H120.815C120.646 201.921 120.311 201.352 119.81 200.911C119.309 200.47 118.656 200.249 117.85 200.249C116.625 200.249 115.669 200.783 114.983 201.85C114.303 202.917 113.96 204.401 113.954 206.301H114.077C114.365 205.828 114.719 205.425 115.139 205.093C115.563 204.755 116.037 204.496 116.56 204.317C117.088 204.132 117.643 204.039 118.226 204.039C119.195 204.039 120.072 204.276 120.856 204.75C121.645 205.218 122.274 205.866 122.743 206.694C123.211 207.521 123.445 208.469 123.445 209.536C123.445 210.603 123.203 211.57 122.718 212.435C122.239 213.301 121.564 213.987 120.693 214.494C119.821 214.995 118.803 215.24 117.638 215.229ZM117.63 213.105C118.272 213.105 118.847 212.947 119.353 212.631C119.859 212.316 120.26 211.891 120.554 211.357C120.848 210.824 120.995 210.227 120.995 209.569C120.995 208.926 120.85 208.341 120.562 207.812C120.279 207.284 119.887 206.865 119.386 206.555C118.89 206.244 118.324 206.089 117.687 206.089C117.202 206.089 116.753 206.182 116.339 206.367C115.931 206.552 115.571 206.808 115.261 207.135C114.951 207.461 114.706 207.837 114.526 208.262C114.352 208.681 114.265 209.125 114.265 209.593C114.265 210.219 114.409 210.799 114.697 211.333C114.992 211.866 115.392 212.297 115.898 212.623C116.41 212.944 116.987 213.105 117.63 213.105Z" fill="black"/>
<path d="M68.5129 202L75.8148 187.56V187.437H67.3695V185.273H78.4284V187.511L71.1511 202H68.5129Z" fill="black"/>
<path d="M41.4949 171.229C40.3242 171.229 39.2896 171.027 38.3912 170.624C37.4982 170.221 36.7985 169.666 36.2921 168.958C35.7857 168.25 35.5353 167.444 35.5407 166.54C35.5353 165.833 35.6796 165.182 35.9736 164.588C36.2731 163.989 36.6787 163.491 37.1906 163.094C37.7024 162.691 38.2741 162.435 38.9058 162.326V162.228C38.0727 162.027 37.4056 161.58 36.9047 160.888C36.4037 160.197 36.156 159.402 36.1614 158.504C36.156 157.649 36.382 156.886 36.8394 156.217C37.3022 155.541 37.9365 155.011 38.7424 154.624C39.5483 154.237 40.4658 154.044 41.4949 154.044C42.5131 154.044 43.4225 154.24 44.2229 154.632C45.0287 155.019 45.6631 155.55 46.1259 156.225C46.5888 156.895 46.8229 157.654 46.8283 158.504C46.8229 159.402 46.567 160.197 46.0606 160.888C45.5542 161.58 44.8953 162.027 44.084 162.228V162.326C44.7102 162.435 45.2738 162.691 45.7747 163.094C46.2811 163.491 46.6841 163.989 46.9835 164.588C47.2885 165.182 47.4436 165.833 47.4491 166.54C47.4436 167.444 47.1877 168.25 46.6813 168.958C46.1749 169.666 45.4725 170.221 44.5741 170.624C43.6811 171.027 42.6547 171.229 41.4949 171.229ZM41.4949 169.162C42.1864 169.162 42.7854 169.048 43.2918 168.819C43.7982 168.585 44.1902 168.261 44.4679 167.847C44.7456 167.428 44.8872 166.938 44.8926 166.377C44.8872 165.795 44.7347 165.28 44.4352 164.833C44.1412 164.387 43.741 164.036 43.2346 163.78C42.7282 163.524 42.1483 163.396 41.4949 163.396C40.836 163.396 40.2507 163.524 39.7389 163.78C39.227 164.036 38.8241 164.387 38.5301 164.833C38.236 165.28 38.0917 165.795 38.0972 166.377C38.0917 166.938 38.2251 167.428 38.4974 167.847C38.7751 168.261 39.1698 168.585 39.6817 168.819C40.1935 169.048 40.7979 169.162 41.4949 169.162ZM41.4949 161.379C42.0503 161.379 42.5431 161.267 42.9732 161.044C43.4034 160.82 43.741 160.51 43.986 160.113C44.2365 159.715 44.3645 159.25 44.3699 158.716C44.3645 158.193 44.2392 157.736 43.9942 157.344C43.7546 156.952 43.4197 156.65 42.9896 156.437C42.5594 156.219 42.0612 156.11 41.4949 156.11C40.9177 156.11 40.4113 156.219 39.9757 156.437C39.5456 156.65 39.2107 156.952 38.9711 157.344C38.7315 157.736 38.6145 158.193 38.6199 158.716C38.6145 159.25 38.7342 159.715 38.9793 160.113C39.2243 160.51 39.5619 160.82 39.9921 161.044C40.4277 161.267 40.9286 161.379 41.4949 161.379Z" fill="black"/>
</g>
<defs>
<clipPath id="clip0_1_2">
<rect width="234" height="234" fill="white"/>
</clipPath>
</defs>
</svg>
